HIERARCHY
ROOT Hips
{
 OFFSET 0.000000 0.000000 0.000000
 CHANNELS 6 Xposition Yposition Zposition Yrotation Xrotation Zrotation
 JOINT Chest
 {
  OFFSET 0.000000 0.087911 -0.065546
  CHANNELS 3 Yrotation Xrotation Zrotation
  JOINT Chest2
  {
   OFFSET 0.000000 0.074094 -0.000050
   CHANNELS 3 Yrotation Xrotation Zrotation
   JOINT Chest3
   {
    OFFSET 0.000000 0.105900 0.000026
    CHANNELS 3 Yrotation Xrotation Zrotation
    JOINT Chest4
    {
     OFFSET 0.000000 0.109216 0.000029
     CHANNELS 3 Yrotation Xrotation Zrotation
     JOINT Neck
     {
      OFFSET 0.000000 0.176282 -0.000024
      CHANNELS 3 Yrotation Xrotation Zrotation
      JOINT Head
      {
       OFFSET 0.000000 0.090319 0.000000
       CHANNELS 3 Yrotation Xrotation Zrotation
       End Site
       {
        OFFSET 0.000000 0.131706 0.000000
       }
      }
     }
     JOINT RightCollar
     {
      OFFSET -0.028133 0.110139 -0.000012
      CHANNELS 3 Yrotation Xrotation Zrotation
      JOINT RightShoulder
      {
       OFFSET -0.158561 0.000000 0.000000
       CHANNELS 3 Yrotation Xrotation Zrotation
       JOINT RightElbow
       {
        OFFSET -0.265160 0.000000 0.000000
        CHANNELS 3 Yrotation Xrotation Zrotation
        JOINT RightWrist
        {
         OFFSET -0.239129 0.000000 -0.000016
         CHANNELS 3 Yrotation Xrotation Zrotation
         End Site
         {
          OFFSET -0.175082 0.006533 0.000975
         }
        }
       }
      }
     }
     JOINT LeftCollar
     {
      OFFSET 0.028133 0.110139 -0.000012
      CHANNELS 3 Yrotation Xrotation Zrotation
      JOINT LeftShoulder
      {
       OFFSET 0.158561 0.000000 0.000000
       CHANNELS 3 Yrotation Xrotation Zrotation
       JOINT LeftElbow
       {
        OFFSET 0.265160 0.000000 0.000000
        CHANNELS 3 Yrotation Xrotation Zrotation
        JOINT LeftWrist
        {
         OFFSET 0.239129 0.000000 -0.000016
         CHANNELS 3 Yrotation Xrotation Zrotation
         End Site
         {
          OFFSET 0.175082 0.006533 0.000975
         }
        }
       }
      }
     }
    }
   }
  }
 }
 JOINT RightHip
 {
  OFFSET -0.094771 -0.000069 0.000011
  CHANNELS 3 Yrotation Xrotation Zrotation
  JOINT RightKnee
  {
   OFFSET 0.000000 -0.475024 0.000100
   CHANNELS 3 Yrotation Xrotation Zrotation
   JOINT RightAnkle
   {
    OFFSET 0.000000 -0.411622 0.001356
    CHANNELS 3 Yrotation Xrotation Zrotation
    JOINT RightToe
    {
     OFFSET 0.000000 -0.086895 0.180760
     CHANNELS 3 Yrotation Xrotation Zrotation
     End Site
     {
      OFFSET 0.000000 -0.009624 0.045094
     }
    }
   }
  }
 }
 JOINT LeftHip
 {
  OFFSET 0.094771 -0.000091 0.000014
  CHANNELS 3 Yrotation Xrotation Zrotation
  JOINT LeftKnee
  {
   OFFSET 0.000000 -0.475024 0.000100
   CHANNELS 3 Yrotation Xrotation Zrotation
   JOINT LeftAnkle
   {
    OFFSET 0.000000 -0.411622 0.001356
    CHANNELS 3 Yrotation Xrotation Zrotation
    JOINT LeftToe
    {
     OFFSET 0.000000 -0.086895 0.180760
     CHANNELS 3 Yrotation Xrotation Zrotation
     End Site
     {
      OFFSET 0.000000 -0.009624 0.045094
     }
    }
   }
  }
 }
}
MOTION
Frames: 8
Frame Time: 0.004167
0.132450 0.987134 0.127833 1.212312 8.796982 0.652355 0.561766 1.672372 -1.108440 0.383829 -12.727262 -0.551713 0.259706 0.114700 -0.328372 0.058127 9.531935 -0.095493 -0.529021 -1.397507 0.143948 -0.985616 -2.594266 0.277703 0.386698 -6.656447 10.313319 -3.473221 -4.203775 71.256967 3.451488 -6.423322 -0.457576 -1.056569 -0.996988 6.026722 0.462862 -6.944180 -5.219113 0.137786 -2.510381 -74.689751 -4.551566 -2.674034 -0.979452 0.634399 0.111792 -5.226251 -0.905381 -3.648134 -2.917928 -0.375587 1.457800 0.325261 1.725545 -7.496245 1.509621 0.000000 0.000000 0.000000 2.869358 -4.030251 -0.615661 0.042080 0.781389 -0.170050 0.477782 -6.761327 -0.030938 0.000000 -0.000000 0.000000
0.132396 0.987130 0.127792 1.212803 8.784987 0.652585 0.558990 1.673129 -1.104573 0.382100 -12.726894 -0.549773 0.258534 0.114962 -0.327275 0.057846 9.532011 -0.095174 -0.526526 -1.392714 0.140162 -0.980895 -2.585398 0.270586 0.385850 -6.637616 10.301141 -3.468962 -4.207755 71.270027 3.453570 -6.419752 -0.457819 -1.056270 -0.997060 6.026023 0.464032 -6.924947 -5.219822 0.136419 -2.517546 -74.700822 -4.548677 -2.677273 -0.977991 0.634971 0.112656 -5.221983 -0.904152 -3.634397 -2.918647 -0.379716 1.447805 0.334025 1.730172 -7.484714 1.499420 -0.000000 0.000000 -0.000000 2.862571 -4.020961 -0.603651 0.046388 0.780613 -0.187208 0.479435 -6.757955 -0.023533 0.000000 -0.000000 0.000000
0.132341 0.987125 0.127750 1.213208 8.772886 0.652844 0.556139 1.673868 -1.100669 0.380331 -12.726535 -0.547813 0.257335 0.115217 -0.326170 0.057558 9.532085 -0.094852 -0.523929 -1.387844 0.136325 -0.975984 -2.576387 0.263371 0.385136 -6.618565 10.288709 -3.464769 -4.211936 71.283416 3.455607 -6.415954 -0.458134 -1.055998 -0.997128 6.025032 0.465381 -6.905391 -5.220626 0.134919 -2.524786 -74.711967 -4.545865 -2.680360 -0.976467 0.635587 0.113629 -5.217602 -0.902963 -3.620658 -2.919492 -0.383697 1.437972 0.343064 1.734854 -7.473343 1.488929 -0.000000 0.000000 0.000000 2.855833 -4.011570 -0.591499 0.050908 0.779838 -0.204722 0.480913 -6.754613 -0.015878 0.000000 0.000000 -0.000000
0.132287 0.987120 0.127708 1.213555 8.760715 0.653124 0.553236 1.674594 -1.096741 0.378535 -12.726182 -0.545841 0.256117 0.115469 -0.325061 0.057264 9.532158 -0.094529 -0.521265 -1.382923 0.132455 -0.970948 -2.567281 0.256093 0.384509 -6.599367 10.276107 -3.460619 -4.216251 71.297026 3.457614 -6.412004 -0.458497 -1.055742 -0.997195 6.023847 0.466850 -6.885621 -5.221494 0.133330 -2.532076 -74.723162 -4.543102 -2.683346 -0.974901 0.636232 0.114673 -5.213146 -0.901803 -3.606916 -2.920420 -0.387580 1.428248 0.352287 1.739573 -7.462077 1.478244 -0.000000 0.000000 0.000000 2.849128 -4.002113 -0.579253 0.055570 0.779064 -0.222472 0.482274 -6.751292 -0.008057 -0.000000 0.000000 0.000000
0.132232 0.987115 0.127666 1.213873 8.748509 0.653413 0.550308 1.675314 -1.092802 0.376725 -12.725832 -0.543863 0.254890 0.115719 -0.323949 0.056968 9.532231 -0.094205 -0.518566 -1.377976 0.128567 -0.965850 -2.558127 0.248783 0.383924 -6.580097 10.263418 -3.456492 -4.220633 71.310745 3.459606 -6.407978 -0.458885 -1.055496 -0.997260 6.022564 0.468376 -6.865744 -5.222393 0.131697 -2.539393 -74.734380 -4.540366 -2.686281 -0.973315 0.636893 0.115754 -5.208653 -0.900656 -3.593174 -2.921390 -0.391415 1.418579 0.361601 1.744308 -7.450864 1.467464 -0.000000 0.000000 0.000000 2.842438 -3.992621 -0.566961 0.060303 0.778291 -0.240341 0.483577 -6.747982 -0.000151 0.000000 -0.000000 0.000000
0.132177 0.987109 0.127624 1.214191 8.736303 0.653703 0.547379 1.676034 -1.088863 0.374915 -12.725482 -0.541885 0.253663 0.115968 -0.322837 0.056672 9.532304 -0.093882 -0.515869 -1.373028 0.124680 -0.960753 -2.548973 0.241473 0.383336 -6.560829 10.250728 -3.452364 -4.225014 71.324463 3.461598 -6.403951 -0.459272 -1.055250 -0.997325 6.021282 0.469900 -6.845866 -5.223294 0.130064 -2.546710 -74.745598 -4.537629 -2.689217 -0.971728 0.637553 0.116833 -5.204159 -0.899510 -3.579431 -2.922360 -0.395251 1.408910 0.370916 1.749041 -7.439651 1.456684 -0.000000 -0.000000 -0.000000 2.835748 -3.983128 -0.554672 0.065038 0.777518 -0.258209 0.484880 -6.744672 0.007754 0.000000 0.000000 -0.000000
0.132122 0.987104 0.127582 1.214538 8.724132 0.653982 0.544474 1.676760 -1.084937 0.373118 -12.725128 -0.539914 0.252444 0.116220 -0.321728 0.056379 9.532377 -0.093559 -0.513205 -1.368106 0.120810 -0.955720 -2.539866 0.234197 0.382697 -6.541637 10.238119 -3.448214 -4.229328 71.338072 3.463604 -6.400000 -0.459635 -1.054995 -0.997392 6.020097 0.471361 -6.826096 -5.224165 0.128475 -2.554005 -74.756789 -4.534868 -2.692204 -0.970164 0.638200 0.117877 -5.199703 -0.898349 -3.565690 -2.923286 -0.399139 1.399187 0.380140 1.753752 -7.428382 1.446004 -0.000000 -0.000000 0.000000 2.829042 -3.973667 -0.542433 0.069703 0.776746 -0.275958 0.486242 -6.741352 0.015576 -0.000000 0.000000 -0.000000
0.132068 0.987100 0.127540 1.214943 8.712031 0.654241 0.541618 1.677499 -1.081037 0.371347 -12.724769 -0.537956 0.251244 0.116476 -0.320625 0.056090 9.532451 -0.093238 -0.510609 -1.363236 0.116974 -0.950814 -2.530852 0.226987 0.381963 -6.522593 10.225677 -3.444020 -4.233507 71.351460 3.465639 -6.396201 -0.459950 -1.054722 -0.997460 6.019106 0.472698 -6.806540 -5.224975 0.126977 -2.561252 -74.767929 -4.532056 -2.695292 -0.968642 0.638817 0.118847 -5.195322 -0.897162 -3.551950 -2.924128 -0.403127 1.389356 0.389182 1.758423 -7.417006 1.435519 0.000000 -0.000000 -0.000000 2.822302 -3.964269 -0.530292 0.074230 0.775973 -0.293471 0.487722 -6.738012 0.023231 0.000000 0.000000 0.000000
